<svg width="24" height="24" viewBox="0 0 24 24" fill="none" xmlns="http://www.w3.org/2000/svg">
<g clip-path="url(#clip0_343_17)">
<path d="M22 0H2C0.896 0 0 0.895 0 2V22C0 23.105 0.896 24 2 24H22C23.104 24 24 23.105 24 22V2C24 0.895 23.104 0 22 0ZM14.152 16.35H12.502C12.419 16.35 12.37 16.33 12.354 16.264L11.529 13.249H8.322L8.325 13.25L7.533 16.248C7.516 16.331 7.483 16.35 7.385 16.35H5.917C5.817 16.35 5.802 16.317 5.817 16.202L8.657 6.257C8.707 6.077 8.739 5.919 8.755 5.424C8.755 5.358 8.788 5.324 8.838 5.324H10.934C11 5.324 11.034 5.342 11.05 5.424L14.235 16.218C14.252 16.301 14.235 16.35 14.152 16.35ZM17.531 16.242C17.531 16.325 17.515 16.358 17.416 16.358H15.866C15.766 16.358 15.733 16.308 15.733 16.228V8.34L15.725 8.341C15.725 8.261 15.758 8.231 15.841 8.231H17.411C17.499 8.231 17.531 8.264 17.531 8.347V16.242V16.242ZM16.619 7.09C16.019 7.09 15.609 6.727 15.609 6.067H15.613C15.613 5.424 16.058 5.044 16.636 5.044C17.246 5.044 17.659 5.456 17.659 6.067C17.659 6.727 17.229 7.09 16.619 7.09Z" fill="white"/>
<path d="M9.90793 6.9248C9.69393 8.0948 9.16593 10.0748 8.75293 11.6248H11.1129C10.8329 10.5188 10.1729 8.0968 9.92493 6.9248H9.90793Z" fill="white"/>
</g>
<defs>
<clipPath id="clip0_343_17">
<rect width="24" height="24" fill="white"/>
</clipPath>
</defs>
</svg>
