<svg width="24" height="24" viewBox="0 0 24 24" fill="none" xmlns="http://www.w3.org/2000/svg">
<g clip-path="url(#clip0_343_14)">
<path d="M16.433 9.54078C15.476 9.54078 15.063 10.3828 14.965 11.2728H16.978L16.98 11.2748C17.492 11.2748 17.673 11.2748 17.722 11.2588C17.722 11.1908 17.739 11.1338 17.739 11.0848C17.739 10.5398 17.473 9.54078 16.433 9.54078ZM8.368 6.92578C8.154 8.09578 7.612 10.0738 7.198 11.6258H9.59C9.31 10.5198 8.63 8.09578 8.384 6.92578H8.368V6.92578Z" fill="white"/>
<path d="M0 2V22C0 23.105 0.895 24 2 24H22C23.105 24 24 23.105 24 22V2C24 0.895 23.105 0 22 0H2C0.895 0 0 0.895 0 2ZM12.609 16.346H10.959C10.877 16.346 10.829 16.316 10.812 16.25L9.987 13.248H6.787L6.784 13.25L5.992 16.236C5.975 16.319 5.942 16.349 5.844 16.349H4.376C4.276 16.349 4.26 16.314 4.276 16.199L7.116 6.266C7.166 6.086 7.198 5.941 7.214 5.446C7.214 5.38 7.247 5.346 7.297 5.346H9.393C9.459 5.346 9.493 5.364 9.509 5.446L12.692 16.216C12.708 16.298 12.692 16.346 12.609 16.346ZM19.354 12.46C19.337 12.542 19.304 12.57 19.222 12.587C19.024 12.62 18.43 12.653 17.555 12.653H14.95C14.968 14.004 15.611 14.91 17.128 14.91C17.722 14.91 18.231 14.832 18.758 14.6C18.825 14.568 18.875 14.585 18.875 14.667V15.921C18.875 16.021 18.842 16.071 18.775 16.121C18.248 16.385 17.591 16.501 16.765 16.501C14.125 16.501 13.135 14.554 13.135 12.376C13.135 10.016 14.357 8.086 16.502 8.086C18.68 8.086 19.439 9.919 19.439 11.403C19.439 11.883 19.404 12.279 19.354 12.46Z" fill="white"/>
</g>
<defs>
<clipPath id="clip0_343_14">
<rect width="24" height="24" fill="white"/>
</clipPath>
</defs>
</svg>
