<svg width="24" height="24" viewBox="0 0 24 24" fill="none" xmlns="http://www.w3.org/2000/svg">
<path d="M14.9753 3.01879L15.9351 1.2872C15.9474 1.26499 15.9552 1.24056 15.9581 1.21533C15.961 1.19009 15.9589 1.16453 15.9519 1.14012C15.9449 1.1157 15.9331 1.0929 15.9173 1.07302C15.9015 1.05314 15.8819 1.03657 15.8597 1.02426C15.8148 0.999384 15.7619 0.993353 15.7126 1.00749C15.6633 1.02163 15.6216 1.05478 15.5968 1.09964L14.6263 2.85042C13.7983 2.48743 12.904 2.30002 11.9999 2.30002C11.0958 2.30002 10.2016 2.48743 9.37356 2.85042L8.40308 1.09964C8.37821 1.05478 8.33653 1.02163 8.28722 1.00749C8.23791 0.993353 8.185 0.999384 8.14013 1.02426C8.09527 1.04913 8.06212 1.0908 8.04798 1.14012C8.03385 1.18943 8.03988 1.24234 8.06475 1.2872L9.0246 3.0188C8.11093 3.46917 7.33894 4.16247 6.79331 5.02265C6.24768 5.88284 5.94949 6.87667 5.93144 7.89515H18.0684C18.0504 6.87667 17.7522 5.88283 17.2066 5.02265C16.6609 4.16246 15.8889 3.46916 14.9753 3.01879ZM9.19903 5.67439C9.09879 5.67439 9.00081 5.64467 8.91747 5.58898C8.83412 5.53329 8.76916 5.45414 8.73081 5.36153C8.69245 5.26893 8.68241 5.16703 8.70197 5.06872C8.72152 4.97041 8.76979 4.88011 8.84067 4.80923C8.91154 4.73835 9.00185 4.69008 9.10016 4.67053C9.19847 4.65097 9.30037 4.66101 9.39297 4.69937C9.48558 4.73773 9.56473 4.80268 9.62042 4.88603C9.6761 4.96937 9.70583 5.06736 9.70583 5.16759C9.70568 5.30196 9.65223 5.43078 9.55722 5.52579C9.46221 5.6208 9.33339 5.67424 9.19903 5.67439ZM14.8008 5.67439C14.7006 5.67439 14.6026 5.64467 14.5192 5.58898C14.4359 5.53329 14.3709 5.45414 14.3326 5.36153C14.2942 5.26893 14.2842 5.16703 14.3037 5.06872C14.3233 4.97041 14.3716 4.88011 14.4424 4.80923C14.5133 4.73835 14.6036 4.69008 14.7019 4.67053C14.8002 4.65097 14.9021 4.66101 14.9948 4.69937C15.0874 4.73773 15.1665 4.80268 15.2222 4.88603C15.2779 4.96937 15.3076 5.06736 15.3076 5.16759C15.3075 5.30196 15.254 5.43078 15.159 5.52579C15.064 5.6208 14.9352 5.67424 14.8008 5.67439ZM5.93135 17.1714C5.93135 17.5605 6.08592 17.9337 6.36106 18.2088C6.6362 18.4839 7.00937 18.6385 7.39848 18.6385H8.37208V21.6395C8.37159 21.8184 8.40642 21.9957 8.47458 22.1612C8.54273 22.3267 8.64286 22.4771 8.76924 22.6038C8.89562 22.7306 9.04576 22.8311 9.21106 22.8997C9.37635 22.9683 9.55356 23.0036 9.73253 23.0036C9.9115 23.0036 10.0887 22.9683 10.254 22.8997C10.4193 22.8311 10.5694 22.7306 10.6958 22.6038C10.8222 22.4771 10.9223 22.3267 10.9905 22.1612C11.0586 21.9957 11.0935 21.8184 11.093 21.6395V18.6385H12.9068V21.6395C12.9064 21.8184 12.9412 21.9957 13.0093 22.1612C13.0775 22.3267 13.1776 22.4771 13.304 22.6038C13.4304 22.7306 13.5805 22.8311 13.7458 22.8997C13.9111 22.9683 14.0883 23.0036 14.2673 23.0036C14.4463 23.0036 14.6235 22.9683 14.7888 22.8997C14.9541 22.8311 15.1042 22.7306 15.2306 22.6038C15.357 22.4771 15.4571 22.3267 15.5253 22.1612C15.5934 21.9957 15.6282 21.8184 15.6278 21.6395V18.6385H16.6014C16.9905 18.6385 17.3637 18.4839 17.6388 18.2088C17.914 17.9337 18.0685 17.5605 18.0685 17.1714V8.37525H5.93135V17.1714ZM4.06407 8.14184C3.70338 8.14225 3.35758 8.28572 3.10253 8.54076C2.84749 8.79581 2.70403 9.14161 2.70362 9.5023V15.1708C2.70313 15.3497 2.73796 15.527 2.80612 15.6925C2.87427 15.858 2.9744 16.0084 3.10078 16.1351C3.22716 16.2619 3.3773 16.3624 3.5426 16.431C3.70789 16.4996 3.8851 16.5349 4.06407 16.5349C4.24304 16.5349 4.42025 16.4996 4.58555 16.431C4.75085 16.3624 4.90099 16.2619 5.02737 16.1351C5.15375 16.0084 5.25388 15.858 5.32203 15.6925C5.39018 15.527 5.42501 15.3497 5.42453 15.1708V9.5023C5.42412 9.14161 5.28066 8.79581 5.02561 8.54076C4.77056 8.28571 4.42476 8.14225 4.06407 8.14184ZM19.9358 8.14184C19.5751 8.14225 19.2293 8.28571 18.9742 8.54076C18.7192 8.79581 18.5757 9.14161 18.5753 9.5023V15.1708C18.5748 15.3497 18.6097 15.527 18.6778 15.6925C18.746 15.858 18.8461 16.0084 18.9725 16.1351C19.0988 16.2619 19.249 16.3624 19.4143 16.431C19.5796 16.4996 19.7568 16.5349 19.9358 16.5349C20.1147 16.5349 20.2919 16.4996 20.4572 16.431C20.6225 16.3624 20.7727 16.2619 20.8991 16.1351C21.0254 16.0084 21.1256 15.858 21.1937 15.6925C21.2619 15.527 21.2967 15.3497 21.2962 15.1708V9.5023C21.2958 9.14161 21.1523 8.79581 20.8973 8.54076C20.6423 8.28572 20.2965 8.14225 19.9358 8.14184Z" fill="white"/>
</svg>
