<svg width="32" height="32" viewBox="0 0 32 32" fill="none" xmlns="http://www.w3.org/2000/svg">
<path d="M23.839 25.065C26.382 22.863 28 19.62 28 16C28 9.383 22.617 4 16 4C9.383 4 4 9.383 4 16C4 19.62 5.618 22.863 8.161 25.065L7.143 26.762C7.04935 26.9175 6.99991 27.0955 7 27.277V28.191C7 28.2763 7.02181 28.3601 7.06335 28.4346C7.10489 28.509 7.16478 28.5716 7.23733 28.6164C7.30988 28.6612 7.39268 28.6867 7.47786 28.6905C7.56304 28.6943 7.64777 28.6762 7.724 28.638L8.74 28.13C8.91 28.045 9.052 27.913 9.15 27.75L9.981 26.365C11.753 27.398 13.805 28 16 28C18.195 28 20.247 27.398 22.019 26.365L22.85 27.751C22.948 27.914 23.09 28.046 23.26 28.131L24.276 28.639C24.3523 28.6772 24.4371 28.6953 24.5224 28.6915C24.6077 28.6877 24.6905 28.6621 24.7631 28.6172C24.8357 28.5723 24.8955 28.5095 24.937 28.4349C24.9785 28.3603 25.0002 28.2763 25 28.191V27.277C25.0002 27.0958 24.9508 26.918 24.857 26.763L23.839 25.065V25.065ZM16 26C14.2465 25.9995 12.5244 25.5344 11.009 24.652L12.043 22.928C13.2453 23.626 14.6098 23.9956 16 24C17.3914 24 18.7583 23.6345 19.964 22.94L20.992 24.653C19.476 25.5345 17.7537 25.9992 16 26V26ZM14.771 18.382L15.446 18.832C15.61 18.9421 15.803 19.0008 16.0005 19.0008C16.198 19.0008 16.391 18.9421 16.555 18.832L17.23 18.382L18.937 21.227C18.067 21.717 17.067 22 16 22C14.9718 21.997 13.962 21.7276 13.069 21.218L14.771 18.382V18.382ZM14 14C13.994 13.7337 14.0412 13.4688 14.139 13.221C14.2367 12.9731 14.383 12.7473 14.5692 12.5568C14.7554 12.3663 14.9778 12.2149 15.2233 12.1115C15.4689 12.0081 15.7326 11.9549 15.999 11.9548C16.2654 11.9547 16.5291 12.0079 16.7747 12.1111C17.0203 12.2144 17.2428 12.3657 17.4291 12.5561C17.6154 12.7465 17.7618 12.9723 17.8596 13.22C17.9575 13.4678 18.0049 13.7327 17.999 13.999C17.9874 14.5216 17.7718 15.0188 17.3982 15.3844C17.0245 15.7499 16.5227 15.9547 16 15.9548C15.4773 15.9549 14.9753 15.7504 14.6015 15.3851C14.2277 15.0197 14.0118 14.5226 14 14ZM22.791 23.319L21.737 21.562C23.1881 20.0742 24.0002 18.0782 24 16C24 15.7348 23.8946 15.4804 23.7071 15.2929C23.5196 15.1054 23.2652 15 23 15C22.7348 15 22.4804 15.1054 22.2929 15.2929C22.1054 15.4804 22 15.7348 22 16C22.0006 17.3731 21.5281 18.7045 20.662 19.77L19.087 17.145L19.555 16.833C19.833 16.646 20 16.334 20 16V12C20 11.7348 19.8946 11.4804 19.7071 11.2929C19.5196 11.1054 19.2652 11 19 11H18V9C18 8.73478 17.8946 8.48043 17.7071 8.29289C17.5196 8.10536 17.2652 8 17 8H15C14.7348 8 14.4804 8.10536 14.2929 8.29289C14.1054 8.48043 14 8.73478 14 9V11H13C12.7348 11 12.4804 11.1054 12.2929 11.2929C12.1054 11.4804 12 11.7348 12 12V16C12 16.334 12.167 16.646 12.445 16.832L12.913 17.144L9.208 23.319C7.241 21.492 6 18.891 6 16C6 10.486 10.486 6 16 6C21.514 6 26 10.486 26 16C26 18.891 24.759 21.492 22.791 23.319V23.319Z" fill="white"/>
</svg>
